<svg preserveAspectRatio="none" width="100%" height="100%" overflow="visible" style="display: block;" viewBox="0 0 40 40" fill="none" xmlns="http://www.w3.org/2000/svg">
<g id="ChatGPT" clip-path="url(#clip0_0_358)">
<path id="Vector" d="M37.1378 16.3714C38.0453 13.6477 37.7328 10.6639 36.2815 8.18643C34.099 4.38644 29.7115 2.43144 25.4265 3.35144C23.5203 1.20394 20.7815 -0.0173145 17.9103 0.000185529C13.5303 -0.00981447 9.64401 2.81019 8.29651 6.97768C5.48276 7.55393 3.05401 9.31518 1.63276 11.8114C-0.56599 15.6014 -0.0647404 20.3789 2.87276 23.6289C1.96526 26.3527 2.27776 29.3364 3.72901 31.8139C5.91151 35.6139 10.299 37.5689 14.584 36.6489C16.489 38.7964 19.229 40.0177 22.1003 39.9989C26.4828 40.0102 30.3703 37.1877 31.7178 33.0164C34.5315 32.4402 36.9603 30.6789 38.3815 28.1827C40.5778 24.3927 40.0753 19.6189 37.139 16.3689L37.1378 16.3714ZM22.1028 37.3852C20.349 37.3877 18.6503 36.7739 17.304 35.6502C17.3653 35.6177 17.4715 35.5589 17.5403 35.5164L25.5053 30.9164C25.9128 30.6852 26.1628 30.2514 26.1603 29.7827V18.5539L29.5265 20.4977C29.5628 20.5152 29.5865 20.5502 29.5915 20.5902V29.8889C29.5865 34.0239 26.2378 37.3764 22.1028 37.3852ZM5.99776 30.5064C5.11901 28.9889 4.80276 27.2102 5.10401 25.4839C5.16276 25.5189 5.26651 25.5827 5.34026 25.6252L13.3053 30.2252C13.709 30.4614 14.209 30.4614 14.614 30.2252L24.3378 24.6102V28.4977C24.3403 28.5377 24.3215 28.5764 24.2903 28.6014L16.239 33.2502C12.6528 35.3152 8.07276 34.0877 5.99901 30.5064H5.99776ZM3.90151 13.1202C4.77651 11.6002 6.15776 10.4377 7.80276 9.83393C7.80276 9.90268 7.79901 10.0239 7.79901 10.1089V19.3102C7.79651 19.7777 8.04651 20.2114 8.45276 20.4427L18.1765 26.0564L14.8103 28.0002C14.7765 28.0227 14.734 28.0264 14.6965 28.0102L6.64401 23.3577C3.06526 21.2852 1.83776 16.7064 3.90026 13.1214L3.90151 13.1202ZM31.559 19.5564L21.8353 13.9414L25.2015 11.9989C25.2353 11.9764 25.2778 11.9727 25.3153 11.9889L33.3678 16.6377C36.9528 18.7089 38.1815 23.2952 36.1103 26.8802C35.234 28.3977 33.854 29.5602 32.2103 30.1652V20.6889C32.214 20.2214 31.9653 19.7889 31.5603 19.5564H31.559ZM34.909 14.5139C34.8503 14.4777 34.7465 14.4152 34.6728 14.3727L26.7078 9.77268C26.304 9.53643 25.804 9.53643 25.399 9.77268L15.6753 15.3877V11.5002C15.6728 11.4602 15.6915 11.4214 15.7228 11.3964L23.774 6.75143C27.3603 4.68268 31.9453 5.91394 34.0128 9.50144C34.8865 11.0164 35.2028 12.7902 34.9065 14.5139H34.909ZM13.8453 21.4427L10.4778 19.4989C10.4415 19.4814 10.4178 19.4464 10.4128 19.4064V10.1077C10.4153 5.96769 13.774 2.61269 17.914 2.61519C19.6653 2.61519 21.3603 3.23019 22.7065 4.35018C22.6453 4.38268 22.5403 4.44143 22.4703 4.48393L14.5053 9.08393C14.0978 9.31518 13.8478 9.74769 13.8503 10.2164L13.8453 21.4402V21.4427ZM15.674 17.5002L20.0053 14.9989L24.3365 17.4989V22.5002L20.0053 25.0002L15.674 22.5002V17.5002Z" fill="url(#paint0_linear_0_358)"/>
</g>
<defs>
<linearGradient id="paint0_linear_0_358" x1="20.0059" y1="0" x2="20.0059" y2="39.9991" gradientUnits="userSpaceOnUse">
<stop stop-color="white"/>
<stop offset="1" stop-color="#999999"/>
</linearGradient>
<clipPath id="clip0_0_358">
<rect width="40" height="40" fill="white"/>
</clipPath>
</defs>
</svg>
