<svg preserveAspectRatio="none" width="100%" height="100%" overflow="visible" style="display: block;" viewBox="0 0 47.4757 47.4757" fill="none" xmlns="http://www.w3.org/2000/svg">
<g id="chatgpt-logo">
<rect width="47.4757" height="47.4757" rx="23.7379" fill="var(--fill-0, #2A2E2C)"/>
<rect x="0.755296" y="0.755296" width="45.9651" height="45.9651" rx="22.9826" stroke="var(--stroke-0, white)" stroke-opacity="0.2" stroke-width="1.51059"/>
<path id="Vector" d="M34.2289 21.5458C34.7846 19.8999 34.5933 18.097 33.7046 16.6C32.3681 14.3038 29.6813 13.1225 27.0573 13.6784C25.89 12.3808 24.2129 11.6429 22.4546 11.6535C19.7725 11.6474 17.3927 13.3514 16.5675 15.8696C14.8444 16.2178 13.3572 17.282 12.4868 18.7904C11.1404 21.0805 11.4473 23.9673 13.2462 25.9311C12.6904 27.5769 12.8818 29.3799 13.7705 30.8769C15.107 33.173 17.7938 34.3543 20.4178 33.7984C21.5843 35.0961 23.2622 35.834 25.0205 35.8227C27.7042 35.8295 30.0847 34.124 30.9099 31.6035C32.6329 31.2553 34.1202 30.1911 34.9906 28.6827C36.3355 26.3926 36.0278 23.5081 34.2297 21.5443L34.2289 21.5458ZM25.022 34.2433C23.948 34.2448 22.9078 33.874 22.0834 33.1949C22.1209 33.1753 22.186 33.1398 22.2281 33.1141L27.1056 30.3346C27.3551 30.1948 27.5082 29.9328 27.5067 29.6495V22.8645L29.568 24.0391C29.5902 24.0496 29.6048 24.0708 29.6079 24.0949V29.7137C29.6048 32.2123 27.5541 34.238 25.022 34.2433ZM15.1598 30.0868C14.6217 29.1699 14.428 28.0951 14.6125 27.052C14.6485 27.0731 14.712 27.1117 14.7572 27.1373L19.6347 29.9169C19.8819 30.0596 20.1881 30.0596 20.4361 29.9169L26.3906 26.524V28.873C26.3922 28.8972 26.3807 28.9206 26.3615 28.9357L21.4312 31.7447C19.2351 32.9925 16.4305 32.2508 15.1606 30.0868H15.1598ZM13.8761 19.5812C14.412 18.6627 15.2578 17.9603 16.2651 17.5955C16.2651 17.637 16.2628 17.7103 16.2628 17.7617V23.3215C16.2613 23.604 16.4144 23.8661 16.6632 24.0058L22.6177 27.3979L20.5563 28.5724C20.5356 28.586 20.5096 28.5883 20.4866 28.5785L15.5556 25.7672C13.3641 24.5149 12.6124 21.7482 13.8754 19.582L13.8761 19.5812ZM30.8127 23.4703L24.8582 20.0774L26.9196 18.9037C26.9402 18.8901 26.9663 18.8878 26.9892 18.8976L31.9203 21.7067C34.1156 22.9582 34.8681 25.7294 33.5997 27.8957C33.0631 28.8126 32.2181 29.5151 31.2115 29.8806V24.1546C31.2138 23.8721 31.0615 23.6108 30.8134 23.4703H30.8127ZM32.8641 20.4234C32.8281 20.4015 32.7646 20.3637 32.7194 20.338L27.8419 17.5585C27.5947 17.4157 27.2885 17.4157 27.0405 17.5585L21.086 20.9513V18.6023C21.0845 18.5781 21.0959 18.5547 21.1151 18.5396L26.0454 15.7329C28.2415 14.4828 31.0492 15.2268 32.3153 17.3946C32.8503 18.31 33.044 19.3818 32.8626 20.4234H32.8641ZM19.9654 24.6101L17.9032 23.4356C17.881 23.425 17.8665 23.4038 17.8634 23.3797V17.7609C17.8649 15.2593 19.9217 13.2321 22.4569 13.2336C23.5293 13.2336 24.5673 13.6052 25.3917 14.2819C25.3542 14.3016 25.2899 14.3371 25.247 14.3628L20.3695 17.1423C20.12 17.282 19.9669 17.5434 19.9684 17.8266L19.9654 24.6086V24.6101ZM21.0852 22.2278L23.7375 20.7164L26.3899 22.2271V25.2491L23.7375 26.7597L21.0852 25.2491V22.2278Z" fill="url(#paint0_linear_0_338)"/>
</g>
<defs>
<linearGradient id="paint0_linear_0_338" x1="23.738" y1="11.6533" x2="23.738" y2="35.8228" gradientUnits="userSpaceOnUse">
<stop stop-color="white"/>
<stop offset="1" stop-color="#CCCCCC"/>
</linearGradient>
</defs>
</svg>
